<svg xmlns="http://www.w3.org/2000/svg" viewBox="0 0 128 128">
  <!-- Background -->
  <circle cx="64" cy="64" r="64" fill="#1a73e8"/>
  
  <!-- Mail icon -->
  <rect x="24" y="44" width="80" height="50" rx="4" ry="4" fill="white"/>
  
  <!-- @ symbol -->
  <path d="M64,60 C58.5,60 54,64.5 54,70 C54,75.5 58.5,80 64,80 C69.5,80 74,75.5 74,70" stroke="#1a73e8" stroke-width="6" fill="none"/>
  <path d="M74,70 C74,70 74,84 84,84 C94,84 94,70 94,70 L94,60" stroke="#1a73e8" stroke-width="6" fill="none" stroke-linecap="round"/>
  
  <!-- Chat bubble -->
  <path d="M95,35 C95,29.5 90.5,25 85,25 L40,25 C34.5,25 30,29.5 30,35 L30,55 L25,65 L35,60 L85,60 C90.5,60 95,55.5 95,50 L95,35 Z" fill="#76b9f7" opacity="0.7"/>
  
  <!-- Quick action button -->
  <circle cx="90" cy="90" r="18" fill="#34a853"/>
  <rect x="80" y="88" width="20" height="4" fill="white" rx="2" ry="2"/>
  <rect x="88" y="80" width="4" height="20" fill="white" rx="2" ry="2"/>
</svg>
